<svg xmlns="http://www.w3.org/2000/svg" viewBox="56.55 375.85 240 240">
  <rect x="56.55" y="375.85" width="240" height="240" fill="#14182A"/>
  <path fill="#e0ba6e" d="M234.7,430.1v26.4c-12.9-10.8-26.2-16.1-39.9-16.1s-27.9,5.4-38.3,16.3-15.6,24.1-15.7,39.7c0,15.5,5.2,28.5,15.7,39.2,10.4,10.6,23.2,15.9,38.4,15.9s14.5-1.3,19.9-3.8c3.3-1.4,6.5-3.1,9.5-5.2,3.6-2.4,7.1-5,10.4-7.8v26.8c-12.2,7-26,10.8-40.1,10.8-21.1,0-39.1-7.4-53.9-22.1-14.8-14.8-22.2-32.7-22.3-53.7,0-18.8,6.2-35.5,18.6-50.2,15.3-18,35-27,59.3-27,13.2,0,26,3.6,38.4,10.8Z"/>
</svg>
